<svg xmlns="http://www.w3.org/2000/svg" width="24" height="24" viewBox="0 0 24 24" fill="none" stroke="#B900FF" stroke-width="2" stroke-linecap="round" stroke-linejoin="round" class="lucide lucide-tattoo">
  <path d="M16.5 2c.37 0 .7.12 1 .34a2 2 0 0 1 0 3.18l-.5.59a10.33 10.33 0 0 0-1.5 1.89"></path>
  <path d="M22 8.76a10.34 10.34 0 0 1-3 7.24 11.08 11.08 0 0 1-9.95 3h0l.05-.89a10.05 10.05 0 0 0 3.46-1.63A15 15 0 0 0 16 13.38h0L16 22h-4l-.48-1.4a10 10 0 0 1-4.24-1.21 12.26 12.26 0 0 1-6.24-8.74 1.55 1.55 0 0 1 .3-1.21C1.82 8.74 2.36 8 4 8c1.92 0 4 .34 6 2a20.13 20.13 0 0 1 3 4"></path>
  <path d="M4.5 13a4.5 4.5 0 0 0 4 1"></path>
</svg>